<?xml version="1.0" encoding="UTF-8" standalone="no"?>
<!-- Created with Inkscape (http://www.inkscape.org/) -->

<svg
   version="1.1"
   id="svg2"
   width="1587.4"
   height="1122.52"
   viewBox="0 0 1587.4 1122.52"
   sodipodi:docname="DOHA Bus Logo YB large.ai"
   xmlns:inkscape="http://www.inkscape.org/namespaces/inkscape"
   xmlns:sodipodi="http://sodipodi.sourceforge.net/DTD/sodipodi-0.dtd"
   xmlns="http://www.w3.org/2000/svg"
   xmlns:svg="http://www.w3.org/2000/svg">
  <defs
     id="defs6">
    <clipPath
       clipPathUnits="userSpaceOnUse"
       id="clipPath18">
      <path
         d="M 0,841.89 H 1190.551 V 0 H 0 Z"
         id="path16" />
    </clipPath>
  </defs>
  <sodipodi:namedview
     id="namedview4"
     pagecolor="#ffffff"
     bordercolor="#000000"
     borderopacity="0.25"
     inkscape:showpageshadow="2"
     inkscape:pageopacity="0.0"
     inkscape:pagecheckerboard="0"
     inkscape:deskcolor="#d1d1d1" />
  <g
     id="g8"
     inkscape:groupmode="layer"
     inkscape:label="DOHA Bus Logo YB large"
     transform="matrix(1.3333333,0,0,-1.3333333,0,1122.52)">
    <path
       d="M 0,0 H 1190.551 V 841.89 H 0 Z"
       style="fill:#ffda00;fill-opacity:1;fill-rule:nonzero;stroke:none"
       id="path10" />
    <g
       id="g12">
      <g
         id="g14"
         clip-path="url(#clipPath18)">
        <g
           id="g20"
           transform="translate(646.2373,282.3682)">
          <path
             d="m 0,0 c 0.067,-14.498 -8.631,-26.24 -19.487,-26.279 -10.765,-0.03 -19.524,11.633 -19.618,26.133 -0.042,14.49 8.693,26.228 19.498,26.302 C -8.8,26.156 0,14.482 0,0"
             style="fill:#98999b;fill-opacity:1;fill-rule:nonzero;stroke:none"
             id="path22" />
        </g>
        <path
           d="m 840.086,220.187 h -57.563 v 94.324 h 57.563 z"
           style="fill:#00a8e2;fill-opacity:1;fill-rule:nonzero;stroke:none"
           id="path24" />
        <path
           d="m 553.203,260.073 h -57.534 v 56.051 h 57.534 z"
           style="fill:#81bc00;fill-opacity:1;fill-rule:nonzero;stroke:none"
           id="path26" />
        <g
           id="g28"
           transform="translate(745.7344,282.3682)">
          <path
             d="m 0,0 c 0.097,-14.498 -8.641,-26.24 -19.45,-26.279 -10.814,-0.03 -19.618,11.633 -19.618,26.133 -0.101,14.49 8.636,26.228 19.492,26.302 C -8.808,26.156 -0.049,14.482 0,0"
             style="fill:#ff5200;fill-opacity:1;fill-rule:nonzero;stroke:none"
             id="path30" />
        </g>
        <g
           id="g32"
           transform="translate(857.4404,231.5107)">
          <path
             d="m 0,0 c 2.839,-8.021 7.442,-14.371 13.688,-18.867 6.385,-4.637 14.104,-6.988 22.938,-6.988 4.871,0 9.464,0.873 13.654,2.593 4.197,1.666 7.965,4.006 11.204,6.957 3.306,3.006 5.87,6.612 7.626,10.709 1.889,4.225 2.845,8.809 2.845,13.625 0,4.323 -0.722,8.145 -2.143,11.36 -1.389,3.125 -3.206,5.869 -5.399,8.156 -2.177,2.238 -4.745,4.215 -7.63,5.867 -2.612,1.481 -5.585,2.949 -9.086,4.494 -3.883,1.651 -6.623,2.764 -9.153,3.721 -3.002,1.16 -5.649,2.48 -7.87,3.926 -2.4,1.539 -4.32,3.179 -5.709,4.873 -1.531,1.857 -2.308,4.109 -2.308,6.691 0,3.672 1.485,6.707 4.413,9.018 2.99,2.295 6.061,3.41 9.388,3.41 3.47,0 6.574,-1.168 9.22,-3.475 2.424,-2.035 4.295,-4.429 5.563,-7.123 l 13.909,7.262 c -2.389,5.182 -6.03,9.602 -10.823,13.133 -4.957,3.664 -10.52,5.523 -16.533,5.523 -4.307,0 -8.33,-0.719 -11.955,-2.136 C 22.27,81.396 18.964,79.402 16.013,76.805 13.12,74.219 10.875,71.094 9.334,67.516 7.646,64.008 6.826,60.088 6.826,55.527 c 0,-5.412 1.135,-9.845 3.375,-13.175 2.326,-3.422 5.276,-6.295 8.767,-8.538 3.561,-2.308 7.38,-4.25 11.351,-5.769 4.375,-1.731 8.17,-3.416 11.604,-5.152 3.644,-1.807 6.712,-3.985 9.115,-6.471 2.465,-2.527 3.714,-5.887 3.714,-9.985 0,-4.998 -1.737,-9.117 -5.169,-12.242 -3.438,-3.125 -7.713,-4.709 -12.699,-4.709 -6.251,0 -11.015,1.662 -14.163,4.946 -2.999,3.134 -5.649,7.099 -7.872,11.785 z"
             style="fill:#231f20;fill-opacity:1;fill-rule:nonzero;stroke:none"
             id="path34" />
        </g>
        <g
           id="g36"
           transform="translate(747.6475,238.7412)">
          <path
             d="m 0,0 c 0,-4.707 -1.772,-8.613 -5.161,-11.684 -3.318,-2.863 -8.373,-4.3 -15.338,-4.3 h -9.464 v 31.009 h 7.786 c 8.279,0 14.027,-0.363 17.177,-3.47 C -1.696,8.463 0,4.637 0,0 m -8.602,45.264 c 0,-5.131 -1.349,-9.03 -4.018,-11.657 -2.628,-2.668 -6.842,-4.009 -12.546,-4.009 h -4.797 v 30.937 h 5.397 c 5.147,0 9.13,-1.273 11.843,-3.877 2.772,-2.564 4.121,-6.41 4.121,-11.394 m -112.676,20.642 15.083,-36.113 h -30.866 z M 86.979,11.004 c 0,-9.389 -1.407,-16.178 -4.296,-20.297 -4.303,-6.199 -10.486,-9.262 -18.317,-9.262 -7.823,0 -13.894,3.063 -18.224,9.262 -2.957,4.252 -4.359,11.041 -4.359,20.297 V 60.598 75.77 H 26.233 -45.349 V 75.301 60.598 29.793 h -44.656 l -31.013,72.064 -32.162,-72.064 h -32.711 v 78.211 h -15.39 V 29.793 h -43.869 v 47.59 h -15.383 v -47.59 h -20.037 c -3.652,27.576 -26.447,49.166 -53.826,49.166 h -0.192 c -14.514,-0.064 -28.165,-5.984 -38.393,-16.764 -8.432,-8.795 -13.72,-20.289 -15.278,-32.402 h -21.399 c -1.736,14.965 -7.744,27.75 -18.027,37.695 -11.123,10.662 -27.447,16.022 -49.062,16.022 h -11.411 V -42.146 h 11.411 c 11.383,0 20.847,1.207 28.363,3.726 7.611,2.68 14.365,6.891 20.483,12.594 11.03,10.512 17.238,24.133 18.539,40.236 h 21.177 c 3.829,-27.435 26.52,-48.916 53.789,-48.916 h 0.172 c 14.495,0.049 28.103,5.994 38.377,16.779 8.324,8.735 13.608,20.102 15.233,32.137 h 20.081 v -56.377 h 15.383 V 14.41 h 43.869 v -25.527 h 15.39 V 14.41 h 25.864 l -11.4,-25.527 h 16.611 l 11.183,25.527 h 43.811 l 10.619,-25.527 h 16.769 L -83.411,14.41 h 38.062 v -45.465 h 23.308 c 6.937,0 12.758,0.711 17.287,2.032 4.24,1.414 8.036,3.859 11.431,7.382 5.658,5.727 8.455,12.741 8.455,21.03 0,6.322 -1.558,11.881 -4.743,16.662 -3.106,4.826 -7.365,8.22 -12.806,10.146 5.534,5.246 8.381,11.735 8.381,19.362 0,4.162 -0.869,8.295 -2.525,12.337 -0.415,0.938 -0.827,1.848 -1.284,2.702 H 26.233 V 6.428 c 0,-11.317 3.389,-20.61 10.178,-28.002 7.545,-8.166 16.86,-12.264 27.955,-12.264 11.069,0 20.438,4.098 28.072,12.264 6.742,7.392 10.138,16.685 10.138,28.002 V 75.77 H 86.979 Z"
             style="fill:#231f20;fill-opacity:1;fill-rule:nonzero;stroke:none"
             id="path38" />
        </g>
        <g
           id="g40"
           transform="translate(274.6572,306.9619)">
          <path
             d="m 0,0 c 14.535,-1.068 25.327,-4.996 32.38,-11.656 9.616,-9.102 14.103,-20.543 14.103,-35.862 0,-15.132 -4.487,-26.339 -14.168,-35.472 -4.797,-4.289 -9.84,-7.352 -15.524,-9.35 C 12.236,-93.813 6.549,-94.729 0,-95.154 Z"
             style="fill:#ab192d;fill-opacity:1;fill-rule:nonzero;stroke:none"
             id="path42" />
        </g>
        <g
           id="g44"
           transform="translate(448.376,261.1553)">
          <path
             d="m 0,0 c 0.056,-20.322 -15.665,-36.838 -35.1,-36.904 -19.458,-0.094 -35.263,16.345 -35.346,36.615 -0.069,20.35 15.622,36.846 35.098,36.916 C -15.891,36.701 -0.087,20.311 0,0"
             style="fill:#9579d3;fill-opacity:1;fill-rule:nonzero;stroke:none"
             id="path46" />
        </g>
        <g
           id="g48"
           transform="translate(428.9375,261.042)">
          <path
             d="m 0,0 c 0.059,-9.105 -6.996,-16.51 -15.776,-16.51 -8.704,-0.049 -15.816,7.293 -15.846,16.412 0,9.102 7.047,16.557 15.769,16.575 C -7.13,16.477 -0.019,9.139 0,0"
             style="fill:#231f20;fill-opacity:1;fill-rule:nonzero;stroke:none"
             id="path50" />
        </g>
        <path
           d="m 540.71,436.21 h -62.352 v 50.371 h 62.352 z"
           style="fill:#ff5200;fill-opacity:1;fill-rule:nonzero;stroke:none"
           id="path52" />
        <g
           id="g54"
           transform="translate(550.6367,498.3916)">
          <path
             d="m 0,0 h -10.193 -52.157 -16.774 -1.032 v -62.182 h 17.806 v 43.603 h 52.157 V -90.164 H -211.706 V 0 h -13.523 -4.265 -60.82 v -62.168 h 60.82 v -27.996 -18.381 -0.191 H 7.595 v 0.076 18.496 L 7.595,0 Z"
             style="fill:#231f20;fill-opacity:1;fill-rule:nonzero;stroke:none"
             id="path56" />
        </g>
        <path
           d="M 812.4,562.138 H 675.303 v 58.935 H 812.4 Z"
           style="fill:#ab192d;fill-opacity:1;fill-rule:nonzero;stroke:none"
           id="path58" />
        <path
           d="m 752.956,402.362 h -62.332 v 67.322 h 62.332 z"
           style="fill:#81bc00;fill-opacity:1;fill-rule:nonzero;stroke:none"
           id="path60" />
        <path
           d="m 868.115,389.655 h -17.797 v 125.77 h 17.797 z"
           style="fill:#231f20;fill-opacity:1;fill-rule:nonzero;stroke:none"
           id="path62" />
        <path
           d="M 928.563,478.189 H 892.93 v 37.235 h 35.633 z"
           style="fill:#231f20;fill-opacity:1;fill-rule:nonzero;stroke:none"
           id="path64" />
        <path
           d="m 292.328,549.196 h -32.006 v 33.452 h 32.006 z"
           style="fill:#231f20;fill-opacity:1;fill-rule:nonzero;stroke:none"
           id="path66" />
        <path
           d="m 282.124,559.86 h -11.62 v 12.119 h 11.62 z"
           style="fill:#ffda00;fill-opacity:1;fill-rule:nonzero;stroke:none"
           id="path68" />
        <path
           d="m 332.446,549.196 h -32.019 v 33.426 h 32.019 z"
           style="fill:#231f20;fill-opacity:1;fill-rule:nonzero;stroke:none"
           id="path70" />
        <path
           d="m 322.205,559.788 h -11.582 v 12.191 h 11.582 z"
           style="fill:#ffda00;fill-opacity:1;fill-rule:nonzero;stroke:none"
           id="path72" />
        <g
           id="g74"
           transform="translate(590.3057,498.3916)">
          <path
             d="M 0,0 V -62.182 H 56.595 V -90.164 H 0.229 v -18.572 H 74.372 V 0 Z"
             style="fill:#231f20;fill-opacity:1;fill-rule:nonzero;stroke:none"
             id="path76" />
        </g>
        <g
           id="g78"
           transform="translate(439.9629,694.3447)">
          <path
             d="M 0,0 H 0.604 1.216 Z"
             style="fill:#231f20;fill-opacity:1;fill-rule:nonzero;stroke:none"
             id="path80" />
        </g>
        <g
           id="g82"
           transform="translate(483.3027,576.4971)">
          <path
             d="m 0,0 c -4.752,0 -8.587,4.035 -8.587,8.992 0,4.926 3.835,8.979 8.587,8.979 4.765,0 8.599,-4.053 8.599,-8.979 C 8.599,4.035 4.765,0 0,0 m -43.34,40.818 h -45.549 c -4.483,0 -5.413,3.345 -4.943,6.693 l 4.666,35.162 c 0.642,4.304 2.018,7.126 7.346,7.126 h 38.394 39.804 c 5.298,0 6.693,-2.822 7.344,-7.126 L 8.408,47.511 C 8.847,44.163 7.93,40.818 3.453,40.818 Z M -85.484,0 c -4.722,0 -8.587,4.035 -8.587,8.992 0,4.926 3.865,8.979 8.587,8.979 4.781,0 8.608,-4.053 8.608,-8.979 C -76.876,4.035 -80.703,0 -85.484,0 m 17.213,105.597 h 24.931 26.147 c 5.059,0 5.059,-7.866 0,-7.866 h -26.233 -24.845 c -5.047,0 -5.047,7.866 0,7.866 m 81.576,-11.18 c -1.628,8.757 -7.023,12.255 -15.054,15.761 -7.956,3.451 -26.938,7.563 -40.987,7.67 -14.039,-0.107 -33.012,-4.219 -40.948,-7.67 -8.074,-3.506 -13.429,-7.004 -15.112,-15.761 l -6.003,-48.497 v -66.852 h 10.384 V -31.4 c 0,-12.815 17.901,-12.815 17.901,0 v 10.468 h 33.05 0.124 34.42 V -31.4 c 0,-12.815 17.862,-12.815 17.862,0 v 10.468 H 19.357 V 45.92 Z"
             style="fill:#231f20;fill-opacity:1;fill-rule:nonzero;stroke:none"
             id="path84" />
        </g>
        <path
           d="m 917.183,490.073 h -12.91 v 13.515 h 12.91 z"
           style="fill:#ffda00;fill-opacity:1;fill-rule:nonzero;stroke:none"
           id="path86" />
        <path
           d="m 321.143,454.81 h -43.054 v 25.003 h 43.054 z"
           style="fill:#00a8e2;fill-opacity:1;fill-rule:nonzero;stroke:none"
           id="path88" />
        <path
           d="m 646.9,454.911 h -38.77 v 24.901 h 38.77 z"
           style="fill:#98999b;fill-opacity:1;fill-rule:nonzero;stroke:none"
           id="path90" />
        <g
           id="g92"
           transform="translate(789.0459,586.312)">
          <path
             d="m 0,0 c -4.944,-5.2 -8.356,-11.564 -9.927,-18.475 h -97.497 V 25.5 H 17.854 V 10.523 C 11.131,8.864 4.993,5.26 0,0 M 121.729,44.077 V -18.475 H 63.422 C 60.125,-4.214 49.337,7.043 35.68,10.498 v 98.636 H 17.854 V 44.069 H -125.22 V 39.202 25.5 -18.475 h -88.094 v 62.552 h -17.788 v -90.952 h -297.622 v -18.579 h 297.622 8.053 9.735 v 28.407 H -9.907 c 3.346,-14.282 14.106,-25.532 27.761,-28.995 v -112.464 h -48.053 v 61.879 h -17.788 v -61.879 h -50.435 v -18.151 h 116.276 14.65 3.176 v 130.604 c 6.715,1.672 12.852,5.259 17.865,10.523 4.914,5.164 8.302,11.546 9.907,18.483 h 76.066 v 0.763 17.809 62.552 z"
             style="fill:#231f20;fill-opacity:1;fill-rule:nonzero;stroke:none"
             id="path94" />
        </g>
        <g
           id="g96"
           transform="translate(815.832,546.9609)">
          <path
             d="m 0,0 c -6.091,-0.004 -11.084,5.187 -11.131,11.564 0,6.382 4.905,11.569 11.055,11.569 C 6.045,23.18 11.055,18.001 11.055,11.607 11.055,5.222 6.141,0.038 0,0 m -0.115,37.346 c -13.616,-0.064 -24.643,-11.611 -24.596,-25.828 0.038,-14.26 11.132,-25.761 24.749,-25.736 13.676,0.076 24.654,11.668 24.607,25.906 -0.049,14.209 -11.104,25.714 -24.76,25.658"
             style="fill:#9579d3;fill-opacity:1;fill-rule:nonzero;stroke:none"
             id="path98" />
        </g>
      </g>
    </g>
  </g>
</svg>
